<mxfile host="app.diagrams.net" modified="2024-11-24T07:34:41.641Z" agent="Mozilla/5.0 (Windows NT 10.0; Win64; x64) AppleWebKit/537.36 (KHTML, like Gecko) Chrome/131.0.0.0 Safari/537.36" version="24.4.10" etag="2tKvNiLvZKGSFI58jJYu" type="github">
  <diagram name="Strona-1" id="c3NIO5rAPsMvkSwAV_i0">
    <mxGraphModel>
      <root>
        <mxCell id="0" />
        <mxCell id="1" parent="0" />
      </root>
    </mxGraphModel>
  </diagram>
</mxfile>
